<?xml version="1.0" encoding="utf-8"?>
<!-- Generator: Adobe Illustrator 22.1.0, SVG Export Plug-In . SVG Version: 6.00 Build 0)  -->
<svg version="1.1" xmlns="http://www.w3.org/2000/svg" xmlns:xlink="http://www.w3.org/1999/xlink" x="0px" y="0px"
	 viewBox="0 0 100 100" style="enable-background:new 0 0 100 100;" xml:space="preserve">
<style type="text/css">
	.st0{display:none;}
	.st1{display:inline;}
	.st2{fill:#FFFFFF;}
</style>
<g id="linkedin" class="st0">
	<g class="st1">
		<path class="st2" d="M83.4,57.1v24.7H69.1v-23c0-5.8-2.1-9.7-7.2-9.7c-4,0-6.3,2.7-7.3,5.2c-0.4,0.9-0.5,2.2-0.5,3.5v24H39.8
			c0,0,0.2-39,0-43h14.3v6.1c0,0-0.1,0.1-0.1,0.1h0.1v-0.1c1.9-2.9,5.3-7.1,12.9-7.1C76.4,37.7,83.4,43.9,83.4,57.1L83.4,57.1z
			 M24.8,18c-4.9,0-8.1,3.2-8.1,7.4c0,4.1,3.1,7.4,7.9,7.4h0.1c5,0,8.1-3.3,8.1-7.4C32.7,21.2,29.7,18,24.8,18L24.8,18z M17.5,81.8
			h14.3v-43H17.5V81.8z M17.5,81.8"/>
	</g>
</g>
<g id="facebook" class="st0">
	<g class="st1">
		<g>
			<path class="st2" d="M66.1,18l-8.3,0c-9.3,0-15.4,6.2-15.4,15.8V41h-8.3c-0.7,0-1.3,0.6-1.3,1.3v10.5c0,0.7,0.6,1.3,1.3,1.3h8.3
				v26.6c0,0.7,0.6,1.3,1.3,1.3h10.9c0.7,0,1.3-0.6,1.3-1.3V54.1h9.8c0.7,0,1.3-0.6,1.3-1.3l0-10.5c0-0.3-0.1-0.7-0.4-0.9
				C66.3,41.2,66,41,65.7,41h-9.8v-6.2c0-3,0.7-4.5,4.6-4.5l5.6,0c0.7,0,1.3-0.6,1.3-1.3v-9.8C67.4,18.6,66.8,18,66.1,18L66.1,18z
				 M66.1,18"/>
		</g>
	</g>
</g>
<g id="youtube">
	<g>
		<g>
			<path class="st2" d="M92.5,23.3c-3.3-3.9-9.3-5.5-20.9-5.5h-42c-11.8,0-18,1.7-21.3,5.9C5,27.7,5,33.6,5,41.9v15.8
				c0,16,3.8,24.1,24.5,24.1h42c10,0,15.6-1.4,19.2-4.9c3.7-3.5,5.3-9.3,5.3-19.3V41.9C96,33.2,95.8,27.2,92.5,23.3L92.5,23.3z
				 M63.4,52l-19.1,10c-0.4,0.2-0.9,0.3-1.4,0.3c-0.5,0-1.1-0.1-1.5-0.4c-0.9-0.5-1.4-1.5-1.4-2.5V39.4c0-1,0.5-2,1.4-2.5
				c0.9-0.5,2-0.6,2.9-0.1l19.1,9.9c1,0.5,1.6,1.5,1.6,2.6C65,50.4,64.4,51.4,63.4,52L63.4,52z M63.4,52"/>
		</g>
	</g>
</g>
<g id="email" class="st0">
	<g class="st1">
		<path class="st2" d="M89.7,18H11.2l39.3,35.3L89.7,18z M89.7,18"/>
		<g>
			<polygon class="st2" points="94.7,22.5 64.2,50 59.1,54.5 50.4,62.4 36.7,50 6.1,22.5 6.1,82 94.6,82 94.6,82 94.6,77.5 
				94.7,77.5 			"/>
		</g>
	</g>
</g>
</svg>
